<svg width="148" height="31" viewBox="0 0 148 31" fill="none" xmlns="http://www.w3.org/2000/svg">
<path d="M130.151 30.0941V27.024H148V30.0941H130.151Z" fill="white"/>
<path d="M106.765 24.9891L101.589 6.06885H105.73L109.193 19.9913L113.548 6.06885H117.118L121.759 19.9913L125.221 6.06885H129.077L123.901 24.9891H119.974L115.262 11.0667L110.692 24.9891H106.765Z" fill="white"/>
<path d="M90.8683 25.3818C89.2024 25.3818 87.6673 25.0367 86.2632 24.3465C84.859 23.6325 83.7286 22.5616 82.8718 21.1336C82.0151 19.7057 81.5867 17.897 81.5867 15.7074V14.9935C81.5867 12.8992 81.9913 11.1618 82.8004 9.78148C83.6334 8.40114 84.7281 7.37778 86.0847 6.71141C87.4412 6.02123 88.9168 5.67615 90.5113 5.67615C93.391 5.67615 95.5924 6.44962 97.1156 7.99655C98.6625 9.54349 99.436 11.7568 99.436 14.6365V16.6356H85.5849C85.6325 17.9208 85.9062 18.956 86.406 19.7414C86.9058 20.5268 87.5483 21.0979 88.3337 21.4549C89.1191 21.7881 89.9639 21.9547 90.8683 21.9547C92.2248 21.9547 93.2125 21.7405 93.8313 21.3121C94.4739 20.8837 94.9141 20.3245 95.1521 19.6343H99.079C98.6982 21.5144 97.7581 22.9424 96.2588 23.9181C94.7832 24.8939 92.9864 25.3818 90.8683 25.3818ZM90.6898 9.10321C89.8092 9.10321 88.9882 9.25791 88.2266 9.56729C87.465 9.87668 86.8463 10.3646 86.3703 11.0309C85.8943 11.6973 85.6325 12.5898 85.5849 13.7083H95.5091C95.4853 12.5184 95.2592 11.5902 94.8308 10.9238C94.4025 10.2575 93.8313 9.79338 93.1173 9.53159C92.4033 9.24601 91.5942 9.10321 90.6898 9.10321Z" fill="white"/>
<path d="M70.7098 25.3818C69.0201 25.3818 67.4969 25.0248 66.1404 24.3108C64.7838 23.5968 63.7129 22.5259 62.9275 21.0979C62.1659 19.67 61.7852 17.8732 61.7852 15.7074V14.9935C61.7852 12.9468 62.1897 11.2332 62.9989 9.85288C63.8319 8.47254 64.9266 7.43728 66.2832 6.7471C67.6397 6.03313 69.1153 5.67615 70.7098 5.67615C72.3757 5.67615 73.7799 5.96174 74.9222 6.53291C76.0884 7.10409 76.9928 7.87756 77.6353 8.85332C78.3017 9.82908 78.7301 10.9238 78.9205 12.1376H74.9222C74.6842 11.257 74.2559 10.5312 73.6371 9.95998C73.0183 9.3888 72.0426 9.10321 70.7098 9.10321C69.8292 9.10321 69.0082 9.3055 68.2466 9.71009C67.5088 10.1147 66.9139 10.7572 66.4617 11.6378C66.0095 12.4946 65.7834 13.6131 65.7834 14.9935V15.7074C65.7834 17.2068 66.0095 18.4205 66.4617 19.3487C66.9139 20.2531 67.5088 20.9194 68.2466 21.3478C69.0082 21.7524 69.8292 21.9547 70.7098 21.9547C71.8284 21.9547 72.7327 21.7048 73.4229 21.205C74.1131 20.7052 74.6128 19.9437 74.9222 18.9203H78.9205C78.6825 20.2531 78.1827 21.4073 77.4211 22.3831C76.6834 23.335 75.7433 24.0728 74.6009 24.5964C73.4586 25.12 72.1615 25.3818 70.7098 25.3818Z" fill="white"/>
<path d="M57.6644 25.1675C56.3079 25.1675 55.1893 24.9771 54.3088 24.5963C53.452 24.1917 52.8094 23.5373 52.381 22.6329C51.9765 21.7047 51.7742 20.4791 51.7742 18.9559V0H55.701V18.6704C55.701 19.8365 55.8914 20.6457 56.2722 21.0979C56.653 21.5262 57.355 21.7404 58.3784 21.7404C58.6402 21.7404 58.8663 21.7404 59.0567 21.7404C59.2471 21.7166 59.4375 21.6928 59.6279 21.669V25.0604C59.5089 25.0842 59.3185 25.108 59.0567 25.1318C58.8187 25.1556 58.5688 25.1675 58.307 25.1675C58.069 25.1675 57.8548 25.1675 57.6644 25.1675Z" fill="white"/>
<path d="M36.7695 25.3818C35.413 25.3818 34.2468 25.1319 33.271 24.6321C32.3191 24.1085 31.5932 23.3945 31.0934 22.4902C30.5936 21.5858 30.3438 20.5744 30.3438 19.4558C30.3438 17.5757 30.903 16.1834 32.0216 15.2791C33.1401 14.3509 34.7823 13.8868 36.948 13.8868H42.8383V12.8516C42.8383 11.4236 42.517 10.4479 41.8744 9.92428C41.2556 9.3769 40.268 9.10321 38.9114 9.10321C37.6977 9.10321 36.8052 9.2936 36.234 9.67439C35.6628 10.0552 35.3297 10.5788 35.2345 11.2451H31.4147C31.4861 10.1504 31.8312 9.18651 32.45 8.35354C33.0687 7.52057 33.9374 6.8661 35.056 6.39012C36.1983 5.91414 37.543 5.67615 39.0899 5.67615C40.6368 5.67615 41.9815 5.91414 43.1238 6.39012C44.29 6.8661 45.1825 7.61577 45.8012 8.63913C46.4438 9.63869 46.7651 10.9714 46.7651 12.6374V20.1698C46.7651 21.1693 46.777 22.0499 46.8008 22.8115C46.8246 23.5492 46.8841 24.2751 46.9793 24.9891H43.4094C43.338 24.4417 43.2785 23.9776 43.2309 23.5968C43.2071 23.2161 43.1952 22.7401 43.1952 22.1689C42.7431 23.0495 41.9577 23.811 40.8391 24.4536C39.7444 25.0724 38.3878 25.3818 36.7695 25.3818ZM37.8405 21.9547C38.7448 21.9547 39.5659 21.8 40.3037 21.4906C41.0652 21.1812 41.6721 20.7172 42.1243 20.0984C42.6003 19.4796 42.8383 18.7299 42.8383 17.8494V16.8141H37.662C36.6624 16.8141 35.8532 17.0283 35.2345 17.4567C34.6395 17.8851 34.342 18.5157 34.342 19.3487C34.342 20.1341 34.6157 20.7647 35.1631 21.2407C35.7342 21.7167 36.6267 21.9547 37.8405 21.9547Z" fill="white"/>
<path d="M0 24.9891V6.06883H3.64126V9.2817C4.06964 8.30594 4.75981 7.46108 5.71177 6.7471C6.66374 6.03313 7.75849 5.67615 8.99604 5.67615C10.5668 5.67615 11.7924 6.00933 12.673 6.67571C13.5536 7.34208 14.1604 8.21075 14.4936 9.2817C15.041 8.21075 15.8026 7.34208 16.7783 6.67571C17.7779 6.00933 18.9321 5.67615 20.2411 5.67615C22.2164 5.67615 23.7396 6.25922 24.8105 7.42538C25.8815 8.59153 26.417 10.4003 26.417 12.8516V24.9891H22.4901V13.744C22.4901 12.0543 22.1688 10.8643 21.5262 10.1742C20.9075 9.4602 20.0626 9.10321 18.9916 9.10321C18.1349 9.10321 17.4209 9.3055 16.8497 9.71009C16.3024 10.0909 15.8859 10.6382 15.6003 11.3522C15.3147 12.0424 15.1719 12.8397 15.1719 13.744V24.9891H11.2451V13.744C11.2451 12.0543 10.9238 10.8643 10.2812 10.1742C9.66242 9.4602 8.81755 9.10321 7.74659 9.10321C6.88983 9.10321 6.17586 9.3055 5.60468 9.71009C5.0573 10.0909 4.64082 10.6382 4.35523 11.3522C4.06964 12.0424 3.92684 12.8397 3.92684 13.744V24.9891H0Z" fill="white"/>
</svg>
